<svg xmlns="http://www.w3.org/2000/svg" width="68" height="84.001" viewBox="0 0 68 84.001">
  <g id="location_1_copy" data-name="location 1 copy" transform="translate(-1135 -649.999)">
    <ellipse id="shadow" cx="30.34" cy="10.5" rx="30.34" ry="10.5" transform="translate(1142.32 713)" fill="#111" opacity="0.2"/>
    <path id="Marker_copy" data-name="Marker copy" d="M1162.523,650c14.673,0,27.881,11.589,27.881,25.884,0,13.7-28.192,44.99-28.192,44.99S1135,689.14,1135,675.884C1135,661.588,1147.849,650,1162.523,650Z" fill="#3d3d3d"/>
    <g id="concrete-mixer" transform="translate(1143.747 660.288)">
      <path id="Path_295" data-name="Path 295" d="M24.635,7.6l1.358,1.579,2.038,2.386,1.358,1.588L31.58,15.72a4.969,4.969,0,0,0,1.342,1.112l3.489,2.012a6.909,6.909,0,0,0,3.447.934c.22,0,.45-.017.671-.034l3.8-.373h.026a.675.675,0,0,0,.526-.331l.807-1.4,2.038-3.532,1.231-2.131a.342.342,0,0,0,.034-.085.631.631,0,0,0,0-.526L47.4,7.858a6.864,6.864,0,0,0-2.836-3.116L41.072,2.713a5.31,5.31,0,0,0-1.63-.6L28.149.012a.686.686,0,0,0-.713.323l-3.4,5.884A.681.681,0,0,0,24.117,7Zm0,0" transform="translate(-21.916 0)" fill="#fff"/>
      <path id="Path_296" data-name="Path 296" d="M40.068,123.344l-5.2-5.315a2.914,2.914,0,0,0-1.851-.781h-3.8a.681.681,0,0,0-.679.679V125.4H27.171V118.81l-3.031,5.256a2.01,2.01,0,0,1-1.571,1l-.085.009-.068.009v.314H19.165s-1.97.051-2.343,0H7.473v-5.808l-4.432-5.179-.323-.382V125.4H2.039a.687.687,0,0,0-.645.458L.188,129.474l-.153.458a.687.687,0,0,0,.645.9H3.4a3.4,3.4,0,0,0,6.792,0h1.358a3.4,3.4,0,0,0,6.792,0H30.567a3.4,3.4,0,0,0,6.792,0h1.358a1.818,1.818,0,0,0,1.961-1.358,3.041,3.041,0,0,0,.076-.679v-3.753a2.453,2.453,0,0,0-.688-1.7ZM6.794,132.871a2.038,2.038,0,1,1,2.038-2.038A2.033,2.033,0,0,1,6.794,132.871Zm8.151,0a2.038,2.038,0,1,1,2.038-2.038A2.033,2.033,0,0,1,14.945,132.871Zm19.018,0A2.038,2.038,0,1,1,36,130.833,2.033,2.033,0,0,1,33.963,132.871Zm-.4-9.509a.964.964,0,0,1-.959-.959v-3.8h.408a1.615,1.615,0,0,1,.883.373l4.288,4.381Zm0,0" transform="translate(0 -104.347)" fill="#fff"/>
    </g>
  </g>
</svg>
